<?xml version="1.0" standalone="no"?>
<!DOCTYPE svg PUBLIC "-//W3C//DTD SVG 20010904//EN"
 "http://www.w3.org/TR/2001/REC-SVG-20010904/DTD/svg10.dtd">
<svg version="1.0" xmlns="http://www.w3.org/2000/svg"
 width="55.000000pt" height="55.000000pt" viewBox="0 0 55.000000 55.000000"
 preserveAspectRatio="xMidYMid meet">
<metadata>
Created by potrace 1.11, written by Peter Selinger 2001-2013
</metadata>
<g transform="translate(0.000000,55.000000) scale(0.100000,-0.100000)"
fill="#000000" stroke="none">
<path d="M388 520 c-59 -9 -109 -18 -111 -20 -3 -3 1 -45 9 -95 14 -98 12
-105 -40 -105 -23 0 -27 3 -20 18 5 9 9 39 9 65 0 43 -4 53 -33 78 -102 91
-247 -38 -169 -152 l24 -36 -21 -9 c-15 -6 -20 -16 -18 -34 6 -41 15 -44 112
-31 50 7 94 11 97 8 3 -3 -16 -43 -41 -88 -26 -45 -45 -84 -42 -86 2 -2 67 -1
144 3 l140 7 -54 89 c-30 49 -54 90 -54 92 0 2 45 10 101 17 56 7 107 18 114
25 10 11 10 23 0 68 -7 30 -16 83 -20 118 -4 35 -10 68 -14 74 -4 7 -39 5
-113 -6z m101 -97 c6 -42 9 -79 5 -82 -6 -7 -157 -30 -162 -25 -6 5 -25 154
-20 159 5 6 102 22 139 24 26 1 27 -2 38 -76z m-308 8 c35 -36 37 -70 5 -107
-47 -56 -146 -20 -146 52 0 34 51 84 85 84 16 0 38 -12 56 -29z"/>
</g>
</svg>
